<svg width="586" height="362" viewBox="0 0 586 362" fill="none" xmlns="http://www.w3.org/2000/svg">
<g filter="url(#filter0_d_482_1633)">
<rect x="130" y="102" width="326" height="102" rx="51" fill="white" shape-rendering="crispEdges"/>
<rect x="124" y="96" width="338" height="114" rx="57" stroke="#E1E1E1" stroke-opacity="0.43" stroke-width="12" shape-rendering="crispEdges"/>
</g>
<path d="M254.366 139.829C255.503 137.745 258.497 137.745 259.634 139.829L261.926 144.032C262.357 144.823 263.121 145.378 264.007 145.544L268.712 146.425C271.046 146.862 271.971 149.709 270.34 151.435L267.051 154.913C266.432 155.568 266.14 156.467 266.256 157.36L266.872 162.107C267.178 164.462 264.756 166.222 262.611 165.203L258.286 163.151C257.472 162.764 256.528 162.764 255.714 163.151L251.389 165.203C249.244 166.222 246.822 164.462 247.128 162.107L247.744 157.36C247.86 156.467 247.568 155.568 246.949 154.913L243.66 151.435C242.029 149.709 242.954 146.862 245.288 146.425L249.993 145.544C250.879 145.378 251.643 144.823 252.074 144.032L254.366 139.829Z" fill="#FFB648"/>
<path d="M292.366 139.829C293.503 137.745 296.497 137.745 297.634 139.829L299.926 144.032C300.357 144.823 301.121 145.378 302.007 145.544L306.712 146.425C309.046 146.862 309.971 149.709 308.34 151.435L305.051 154.913C304.432 155.568 304.14 156.467 304.256 157.36L304.872 162.107C305.178 164.462 302.756 166.222 300.611 165.203L296.286 163.151C295.472 162.764 294.528 162.764 293.714 163.151L289.389 165.203C287.244 166.222 284.822 164.462 285.128 162.107L285.744 157.36C285.86 156.467 285.568 155.568 284.949 154.913L281.66 151.435C280.029 149.709 280.954 146.862 283.288 146.425L287.993 145.544C288.879 145.378 289.643 144.823 290.074 144.032L292.366 139.829Z" fill="#FFB648"/>
<path d="M329.366 139.829C330.503 137.745 333.497 137.745 334.634 139.829L336.926 144.032C337.357 144.823 338.121 145.378 339.007 145.544L343.712 146.425C346.046 146.862 346.971 149.709 345.34 151.435L342.051 154.913C341.432 155.568 341.14 156.467 341.256 157.36L341.872 162.107C342.178 164.462 339.756 166.222 337.611 165.203L333.286 163.151C332.472 162.764 331.528 162.764 330.714 163.151L326.389 165.203C324.244 166.222 321.822 164.462 322.128 162.107L322.744 157.36C322.86 156.467 322.568 155.568 321.949 154.913L318.66 151.435C317.029 149.709 317.954 146.862 320.288 146.425L324.993 145.544C325.879 145.378 326.643 144.823 327.074 144.032L329.366 139.829Z" fill="#FFB648"/>
<path d="M367.366 139.829C368.503 137.745 371.497 137.745 372.634 139.829L374.926 144.032C375.357 144.823 376.121 145.378 377.007 145.544L381.712 146.425C384.046 146.862 384.971 149.709 383.34 151.435L380.051 154.913C379.432 155.568 379.14 156.467 379.256 157.36L379.872 162.107C380.178 164.462 377.756 166.222 375.611 165.203L371.286 163.151C370.472 162.764 369.528 162.764 368.714 163.151L364.389 165.203C362.244 166.222 359.822 164.462 360.128 162.107L360.744 157.36C360.86 156.467 360.568 155.568 359.949 154.913L356.66 151.435C355.029 149.709 355.954 146.862 358.288 146.425L362.993 145.544C363.879 145.378 364.643 144.823 365.074 144.032L367.366 139.829Z" fill="#FFB648"/>
<path d="M403.366 139.829C404.503 137.745 407.497 137.745 408.634 139.829L410.926 144.032C411.357 144.823 412.121 145.378 413.007 145.544L417.712 146.425C420.046 146.862 420.971 149.709 419.34 151.435L416.051 154.913C415.432 155.568 415.14 156.467 415.256 157.36L415.872 162.107C416.178 164.462 413.756 166.222 411.611 165.203L407.286 163.151C406.472 162.764 405.528 162.764 404.714 163.151L400.389 165.203C398.244 166.222 395.822 164.462 396.128 162.107L396.744 157.36C396.86 156.467 396.568 155.568 395.949 154.913L392.66 151.435C391.029 149.709 391.954 146.862 394.288 146.425L398.993 145.544C399.879 145.378 400.643 144.823 401.074 144.032L403.366 139.829Z" fill="#D7D1C7"/>
<mask id="mask0_482_1633" style="mask-type:alpha" maskUnits="userSpaceOnUse" x="391" y="138" width="30" height="28">
<path d="M403.366 139.829C404.503 137.745 407.497 137.745 408.634 139.829L410.926 144.032C411.357 144.823 412.121 145.378 413.007 145.544L417.712 146.425C420.046 146.862 420.971 149.709 419.34 151.435L416.051 154.913C415.432 155.568 415.14 156.467 415.256 157.36L415.872 162.107C416.178 164.462 413.756 166.222 411.611 165.203L407.286 163.151C406.472 162.764 405.528 162.764 404.714 163.151L400.389 165.203C398.244 166.222 395.822 164.462 396.128 162.107L396.744 157.36C396.86 156.467 396.568 155.568 395.949 154.913L392.66 151.435C391.029 149.709 391.954 146.862 394.288 146.425L398.993 145.544C399.879 145.378 400.643 144.823 401.074 144.032L403.366 139.829Z" fill="#D7D1C7"/>
</mask>
<g mask="url(#mask0_482_1633)">
<rect x="405" y="173" width="16" height="43" transform="rotate(-180 405 173)" fill="#FFB648"/>
</g>
<path opacity="0.7" d="M170.12 174H171.544V169.744H174.912L176.976 174H178.608L176.384 169.432C177.035 169.16 177.528 168.731 177.864 168.144C178.2 167.552 178.368 166.875 178.368 166.112C178.368 165.195 178.125 164.408 177.64 163.752C177.16 163.091 176.453 162.688 175.52 162.544C175.371 162.517 175.219 162.501 175.064 162.496C174.915 162.485 174.784 162.48 174.672 162.48H170.12V174ZM171.544 168.392V163.832H174.624C174.725 163.832 174.84 163.837 174.968 163.848C175.101 163.859 175.227 163.877 175.344 163.904C175.899 164.027 176.299 164.307 176.544 164.744C176.789 165.176 176.912 165.632 176.912 166.112C176.912 166.592 176.789 167.051 176.544 167.488C176.299 167.92 175.899 168.197 175.344 168.32C175.227 168.347 175.101 168.365 174.968 168.376C174.84 168.387 174.725 168.392 174.624 168.392H171.544ZM182.826 174.24C184.266 174.24 185.333 173.712 186.026 172.656V174H187.29V168.656C187.29 168.315 187.274 167.989 187.242 167.68C187.21 167.365 187.133 167.075 187.01 166.808C186.765 166.243 186.359 165.821 185.794 165.544C185.229 165.261 184.557 165.12 183.778 165.12C182.802 165.12 182.013 165.336 181.41 165.768C180.813 166.2 180.413 166.795 180.21 167.552L181.562 167.96C181.717 167.432 181.991 167.048 182.386 166.808C182.781 166.568 183.239 166.448 183.762 166.448C184.509 166.448 185.045 166.616 185.37 166.952C185.701 167.283 185.874 167.792 185.89 168.48C185.25 168.571 184.578 168.667 183.874 168.768C183.175 168.864 182.554 168.984 182.01 169.128C181.354 169.32 180.837 169.621 180.458 170.032C180.079 170.437 179.89 170.981 179.89 171.664C179.89 172.128 179.999 172.555 180.218 172.944C180.442 173.333 180.77 173.648 181.202 173.888C181.639 174.123 182.181 174.24 182.826 174.24ZM183.042 173.048C182.429 173.048 181.986 172.907 181.714 172.624C181.442 172.336 181.306 172.013 181.306 171.656C181.306 171.251 181.439 170.941 181.706 170.728C181.978 170.509 182.293 170.344 182.65 170.232C183.071 170.115 183.562 170.016 184.122 169.936C184.682 169.856 185.266 169.776 185.874 169.696C185.874 169.893 185.863 170.117 185.842 170.368C185.826 170.619 185.789 170.848 185.73 171.056C185.629 171.589 185.346 172.056 184.882 172.456C184.423 172.851 183.81 173.048 183.042 173.048ZM194.194 174V172.776C193.602 172.867 193.095 172.883 192.674 172.824C192.258 172.765 191.954 172.565 191.762 172.224C191.661 172.043 191.605 171.829 191.594 171.584C191.589 171.333 191.586 171.029 191.586 170.672V166.536H194.194V165.36H191.586V162.96H190.162V165.36H188.41V166.536H190.162V170.736C190.162 171.184 190.167 171.584 190.178 171.936C190.194 172.283 190.287 172.624 190.458 172.96C190.661 173.349 190.957 173.637 191.346 173.824C191.735 174.005 192.178 174.104 192.674 174.12C193.175 174.141 193.682 174.101 194.194 174ZM196.108 163.832H197.532V162.36H196.108V163.832ZM196.108 174H197.532V165.36H196.108V174ZM199.925 174H201.365V169.448C201.365 168.445 201.581 167.701 202.013 167.216C202.45 166.731 203.026 166.488 203.741 166.488C204.349 166.488 204.823 166.64 205.165 166.944C205.506 167.248 205.743 167.643 205.877 168.128C206.015 168.613 206.085 169.128 206.085 169.672V174H207.525V169.224C207.525 168.813 207.474 168.373 207.373 167.904C207.277 167.429 207.101 166.984 206.845 166.568C206.594 166.147 206.245 165.803 205.797 165.536C205.354 165.269 204.783 165.136 204.085 165.136C202.826 165.136 201.866 165.581 201.205 166.472V165.36H199.925V174ZM212.996 174.24C213.53 174.24 214.007 174.149 214.428 173.968C214.855 173.787 215.223 173.533 215.532 173.208V174.04C215.548 175.816 214.74 176.704 213.108 176.704C212.687 176.704 212.282 176.608 211.892 176.416C211.503 176.224 211.202 175.917 210.988 175.496L209.684 176.184C210.047 176.829 210.538 177.307 211.156 177.616C211.775 177.925 212.423 178.08 213.1 178.08C214.135 178.08 214.978 177.859 215.628 177.416C216.284 176.979 216.695 176.301 216.86 175.384C216.903 175.171 216.93 174.955 216.94 174.736C216.956 174.523 216.964 174.296 216.964 174.056V165.36H215.7V166.328C215.386 165.949 215.002 165.653 214.548 165.44C214.095 165.227 213.575 165.12 212.988 165.12C212.188 165.12 211.5 165.32 210.924 165.72C210.348 166.115 209.903 166.656 209.588 167.344C209.279 168.032 209.124 168.808 209.124 169.672C209.124 170.536 209.279 171.312 209.588 172C209.898 172.688 210.34 173.235 210.916 173.64C211.498 174.04 212.191 174.24 212.996 174.24ZM213.172 172.936C212.607 172.936 212.135 172.792 211.756 172.504C211.383 172.216 211.103 171.827 210.916 171.336C210.73 170.84 210.636 170.285 210.636 169.672C210.636 169.064 210.727 168.515 210.908 168.024C211.095 167.533 211.378 167.144 211.756 166.856C212.14 166.568 212.626 166.424 213.212 166.424C214.055 166.424 214.679 166.728 215.084 167.336C215.495 167.939 215.7 168.717 215.7 169.672C215.7 170.621 215.498 171.403 215.092 172.016C214.687 172.629 214.047 172.936 213.172 172.936Z" fill="black"/>
<path d="M177 153H179.544V149.988H181.26V147.612H179.544V142.932H177V147.612H172.068L177.684 135.72H174.816L169.2 147.612V149.988H177V153ZM183.384 153H186.036V150.348H183.384V153ZM194.223 153.36C195.303 153.36 196.295 153.1 197.199 152.58C198.111 152.06 198.843 151.364 199.395 150.492C199.947 149.612 200.223 148.636 200.223 147.564C200.223 146.484 199.979 145.516 199.491 144.66C199.011 143.804 198.347 143.132 197.499 142.644C196.659 142.148 195.699 141.9 194.619 141.9C194.107 141.9 193.591 141.98 193.071 142.14C192.559 142.3 192.091 142.532 191.667 142.836L191.955 138.084H199.035V135.72H189.711L189.183 144.804L191.367 145.572C191.639 145.212 192.019 144.892 192.507 144.612C192.995 144.324 193.591 144.18 194.295 144.18C194.911 144.18 195.475 144.332 195.987 144.636C196.507 144.932 196.919 145.336 197.223 145.848C197.535 146.36 197.691 146.932 197.691 147.564C197.691 148.18 197.539 148.744 197.235 149.256C196.931 149.768 196.523 150.176 196.011 150.48C195.499 150.784 194.927 150.936 194.295 150.936C193.575 150.936 192.899 150.712 192.267 150.264C191.643 149.808 191.231 149.196 191.031 148.428L188.619 149.076C188.859 149.916 189.251 150.66 189.795 151.308C190.339 151.948 190.991 152.452 191.751 152.82C192.511 153.18 193.335 153.36 194.223 153.36ZM206.74 135.72H209.272L204.664 153H202.132L206.74 135.72ZM216.807 153.36C217.887 153.36 218.879 153.1 219.783 152.58C220.695 152.06 221.427 151.364 221.979 150.492C222.531 149.612 222.807 148.636 222.807 147.564C222.807 146.484 222.563 145.516 222.075 144.66C221.595 143.804 220.931 143.132 220.083 142.644C219.243 142.148 218.283 141.9 217.203 141.9C216.691 141.9 216.175 141.98 215.655 142.14C215.143 142.3 214.675 142.532 214.251 142.836L214.539 138.084H221.619V135.72H212.295L211.767 144.804L213.951 145.572C214.223 145.212 214.603 144.892 215.091 144.612C215.579 144.324 216.175 144.18 216.879 144.18C217.495 144.18 218.059 144.332 218.571 144.636C219.091 144.932 219.503 145.336 219.807 145.848C220.119 146.36 220.275 146.932 220.275 147.564C220.275 148.18 220.123 148.744 219.819 149.256C219.515 149.768 219.107 150.176 218.595 150.48C218.083 150.784 217.511 150.936 216.879 150.936C216.159 150.936 215.483 150.712 214.851 150.264C214.227 149.808 213.815 149.196 213.615 148.428L211.203 149.076C211.443 149.916 211.835 150.66 212.379 151.308C212.923 151.948 213.575 152.452 214.335 152.82C215.095 153.18 215.919 153.36 216.807 153.36Z" fill="black"/>
<defs>
<filter id="filter0_d_482_1633" x="0" y="0" width="586" height="362" filterUnits="userSpaceOnUse" color-interpolation-filters="sRGB">
<feFlood flood-opacity="0" result="BackgroundImageFix"/>
<feColorMatrix in="SourceAlpha" type="matrix" values="0 0 0 0 0 0 0 0 0 0 0 0 0 0 0 0 0 0 127 0" result="hardAlpha"/>
<feOffset dy="28"/>
<feGaussianBlur stdDeviation="59"/>
<feComposite in2="hardAlpha" operator="out"/>
<feColorMatrix type="matrix" values="0 0 0 0 0.427425 0 0 0 0 0.42375 0 0 0 0 0.45 0 0 0 0.12 0"/>
<feBlend mode="normal" in2="BackgroundImageFix" result="effect1_dropShadow_482_1633"/>
<feBlend mode="normal" in="SourceGraphic" in2="effect1_dropShadow_482_1633" result="shape"/>
</filter>
</defs>
</svg>
